<mxfile host="app.diagrams.net" agent="Mozilla/5.0 (Windows NT 10.0; Win64; x64) AppleWebKit/537.36 (KHTML, like Gecko) Chrome/131.0.0.0 Safari/537.36" version="25.0.3">
  <diagram name="Page-1" id="XDJh2bKi9moM9LttBe-x">
    <mxGraphModel dx="1434" dy="746" grid="1" gridSize="10" guides="1" tooltips="1" connect="1" arrows="1" fold="1" page="1" pageScale="1" pageWidth="1100" pageHeight="850" math="0" shadow="0">
      <root>
        <mxCell id="0" />
        <mxCell id="1" parent="0" />
        <mxCell id="1w0pHbo5QKQR8wkQ2I2q-1" value="Data Collection" style="rounded=0;whiteSpace=wrap;html=1;fontSize=15;fontFamily=Times New Roman;strokeWidth=2;" parent="1" vertex="1">
          <mxGeometry x="290" y="240" width="120" height="60" as="geometry" />
        </mxCell>
        <mxCell id="1w0pHbo5QKQR8wkQ2I2q-2" value="Detection of Liguistic Patterns and Antipatterns" style="rounded=0;whiteSpace=wrap;html=1;fontSize=15;fontFamily=Times New Roman;strokeWidth=2;" parent="1" vertex="1">
          <mxGeometry x="600" y="120" width="160" height="60" as="geometry" />
        </mxCell>
        <mxCell id="1w0pHbo5QKQR8wkQ2I2q-3" value="Impact Study" style="rounded=0;whiteSpace=wrap;html=1;fontSize=15;fontFamily=Times New Roman;strokeWidth=2;" parent="1" vertex="1">
          <mxGeometry x="600" y="360" width="160" height="60" as="geometry" />
        </mxCell>
        <mxCell id="1w0pHbo5QKQR8wkQ2I2q-4" value="Answer Research Questions" style="rounded=0;whiteSpace=wrap;html=1;fontSize=15;fontFamily=Times New Roman;strokeWidth=2;" parent="1" vertex="1">
          <mxGeometry x="920" y="240" width="120" height="60" as="geometry" />
        </mxCell>
        <mxCell id="1w0pHbo5QKQR8wkQ2I2q-5" value="" style="endArrow=classic;html=1;rounded=0;fontFamily=Times New Roman;strokeWidth=2;" parent="1" edge="1">
          <mxGeometry width="50" height="50" relative="1" as="geometry">
            <mxPoint x="210" y="270.5" as="sourcePoint" />
            <mxPoint x="290" y="270" as="targetPoint" />
          </mxGeometry>
        </mxCell>
        <mxCell id="1w0pHbo5QKQR8wkQ2I2q-6" value="" style="endArrow=classic;html=1;rounded=0;entryX=0;entryY=0.5;entryDx=0;entryDy=0;fontFamily=Times New Roman;strokeWidth=2;" parent="1" target="1w0pHbo5QKQR8wkQ2I2q-2" edge="1" source="1w0pHbo5QKQR8wkQ2I2q-1">
          <mxGeometry width="50" height="50" relative="1" as="geometry">
            <mxPoint x="240" y="270" as="sourcePoint" />
            <mxPoint x="320" y="120" as="targetPoint" />
            <Array as="points">
              <mxPoint x="530" y="270" />
              <mxPoint x="530" y="150" />
            </Array>
          </mxGeometry>
        </mxCell>
        <mxCell id="1w0pHbo5QKQR8wkQ2I2q-7" value="" style="endArrow=classic;html=1;rounded=0;fontFamily=Times New Roman;strokeWidth=2;" parent="1" edge="1" target="1w0pHbo5QKQR8wkQ2I2q-3">
          <mxGeometry width="50" height="50" relative="1" as="geometry">
            <mxPoint x="530" y="270" as="sourcePoint" />
            <mxPoint x="320" y="390" as="targetPoint" />
            <Array as="points">
              <mxPoint x="530" y="390" />
            </Array>
          </mxGeometry>
        </mxCell>
        <mxCell id="1w0pHbo5QKQR8wkQ2I2q-8" value="" style="endArrow=classic;html=1;rounded=0;entryX=0;entryY=0.5;entryDx=0;entryDy=0;exitX=1;exitY=0.5;exitDx=0;exitDy=0;fontFamily=Times New Roman;strokeWidth=2;" parent="1" source="1w0pHbo5QKQR8wkQ2I2q-2" target="1w0pHbo5QKQR8wkQ2I2q-4" edge="1">
          <mxGeometry width="50" height="50" relative="1" as="geometry">
            <mxPoint x="480" y="170" as="sourcePoint" />
            <mxPoint x="590" y="270" as="targetPoint" />
            <Array as="points">
              <mxPoint x="840" y="150" />
              <mxPoint x="840" y="270" />
            </Array>
          </mxGeometry>
        </mxCell>
        <mxCell id="1w0pHbo5QKQR8wkQ2I2q-9" value="" style="endArrow=none;html=1;rounded=0;endFill=0;exitX=1;exitY=0.5;exitDx=0;exitDy=0;fontFamily=Times New Roman;strokeWidth=2;" parent="1" source="1w0pHbo5QKQR8wkQ2I2q-3" edge="1">
          <mxGeometry width="50" height="50" relative="1" as="geometry">
            <mxPoint x="480" y="390" as="sourcePoint" />
            <mxPoint x="840" y="270" as="targetPoint" />
            <Array as="points">
              <mxPoint x="840" y="390" />
            </Array>
          </mxGeometry>
        </mxCell>
        <mxCell id="1w0pHbo5QKQR8wkQ2I2q-11" value="API&amp;nbsp;&lt;div&gt;Specifications&lt;/div&gt;" style="text;html=1;align=center;verticalAlign=middle;resizable=0;points=[];autosize=1;strokeColor=none;fillColor=none;fontFamily=Times New Roman;strokeWidth=2;fontSize=14;" parent="1" vertex="1">
          <mxGeometry x="120" y="245" width="100" height="50" as="geometry" />
        </mxCell>
        <mxCell id="1w0pHbo5QKQR8wkQ2I2q-12" value="API Endpoints and&amp;nbsp;&lt;div&gt;Documentations&lt;/div&gt;" style="text;html=1;align=center;verticalAlign=middle;resizable=0;points=[];autosize=1;strokeColor=none;fillColor=none;rotation=0;fontFamily=Times New Roman;strokeWidth=2;fontSize=14;" parent="1" vertex="1">
          <mxGeometry x="410" y="220" width="130" height="50" as="geometry" />
        </mxCell>
        <mxCell id="1w0pHbo5QKQR8wkQ2I2q-13" value="Detection&amp;nbsp;&lt;div&gt;Results&lt;/div&gt;" style="text;html=1;align=center;verticalAlign=middle;resizable=0;points=[];autosize=1;strokeColor=none;fillColor=none;rotation=0;fontFamily=Times New Roman;strokeWidth=2;fontSize=14;" parent="1" vertex="1">
          <mxGeometry x="760" y="150" width="80" height="50" as="geometry" />
        </mxCell>
        <mxCell id="1w0pHbo5QKQR8wkQ2I2q-14" value="Impact&amp;nbsp;&lt;div&gt;Study&amp;nbsp;&lt;/div&gt;&lt;div&gt;Results&lt;/div&gt;" style="text;html=1;align=center;verticalAlign=middle;resizable=0;points=[];autosize=1;strokeColor=none;fillColor=none;rotation=0;fontFamily=Times New Roman;strokeWidth=2;fontSize=14;" parent="1" vertex="1">
          <mxGeometry x="770" y="330" width="70" height="60" as="geometry" />
        </mxCell>
        <mxCell id="1w0pHbo5QKQR8wkQ2I2q-15" value="" style="endArrow=none;html=1;rounded=0;strokeWidth=2;" parent="1" edge="1">
          <mxGeometry width="50" height="50" relative="1" as="geometry">
            <mxPoint x="280" y="450" as="sourcePoint" />
            <mxPoint x="430" y="450" as="targetPoint" />
            <Array as="points">
              <mxPoint x="280" y="460" />
              <mxPoint x="390" y="460" />
              <mxPoint x="430" y="460" />
            </Array>
          </mxGeometry>
        </mxCell>
        <mxCell id="1w0pHbo5QKQR8wkQ2I2q-16" value="" style="endArrow=none;html=1;rounded=0;strokeWidth=2;" parent="1" edge="1">
          <mxGeometry width="50" height="50" relative="1" as="geometry">
            <mxPoint x="520" y="450" as="sourcePoint" />
            <mxPoint x="860" y="450" as="targetPoint" />
            <Array as="points">
              <mxPoint x="520" y="460" />
              <mxPoint x="575" y="460" />
              <mxPoint x="860" y="460" />
            </Array>
          </mxGeometry>
        </mxCell>
        <mxCell id="1w0pHbo5QKQR8wkQ2I2q-17" value="" style="endArrow=none;html=1;rounded=0;strokeWidth=2;" parent="1" edge="1">
          <mxGeometry width="50" height="50" relative="1" as="geometry">
            <mxPoint x="910" y="450" as="sourcePoint" />
            <mxPoint x="1050" y="450" as="targetPoint" />
            <Array as="points">
              <mxPoint x="910" y="460" />
              <mxPoint x="1050" y="460" />
            </Array>
          </mxGeometry>
        </mxCell>
        <mxCell id="1w0pHbo5QKQR8wkQ2I2q-18" value="Phase 1" style="text;html=1;align=center;verticalAlign=middle;resizable=0;points=[];autosize=1;strokeColor=none;fillColor=none;fontFamily=Times New Roman;strokeWidth=2;fontSize=14;" parent="1" vertex="1">
          <mxGeometry x="305" y="470" width="70" height="30" as="geometry" />
        </mxCell>
        <mxCell id="1w0pHbo5QKQR8wkQ2I2q-19" value="Phase 2" style="text;html=1;align=center;verticalAlign=middle;resizable=0;points=[];autosize=1;strokeColor=none;fillColor=none;fontFamily=Times New Roman;strokeWidth=2;fontSize=14;" parent="1" vertex="1">
          <mxGeometry x="670" y="470" width="70" height="30" as="geometry" />
        </mxCell>
        <mxCell id="1w0pHbo5QKQR8wkQ2I2q-20" value="Phase 3" style="text;html=1;align=center;verticalAlign=middle;resizable=0;points=[];autosize=1;strokeColor=none;fillColor=none;fontFamily=Times New Roman;strokeWidth=2;fontSize=14;" parent="1" vertex="1">
          <mxGeometry x="945" y="470" width="70" height="30" as="geometry" />
        </mxCell>
      </root>
    </mxGraphModel>
  </diagram>
</mxfile>
